<svg width="200" height="60" viewBox="0 0 200 60" fill="none" xmlns="http://www.w3.org/2000/svg">
  <path d="M20 15H35C43.2843 15 50 21.7157 50 30C50 38.2843 43.2843 45 35 45H20V15Z" fill="#740D2A"/>
  <path d="M25 20V40H35C40.5228 40 45 35.5228 45 30C45 24.4772 40.5228 20 35 20H25Z" fill="white"/>
  <path d="M60 15H70V45H60V15Z" fill="#740D2A"/>
  <path d="M80 45L90 15H100L110 45H100L97.5 37.5H82.5L80 45ZM85 30H95L90 15L85 30Z" fill="#740D2A"/>
  <path d="M120 15L130 30L140 15H150L135 37.5V45H125V37.5L110 15H120Z" fill="#740D2A"/>
  <path d="M160 30C160 21.7157 166.716 15 175 15C183.284 15 190 21.7157 190 30C190 38.2843 183.284 45 175 45C166.716 45 160 38.2843 160 30ZM180 30C180 27.2386 177.761 25 175 25C172.239 25 170 27.2386 170 30C170 32.7614 172.239 35 175 35C177.761 35 180 32.7614 180 30Z" fill="#740D2A"/>
</svg>